<svg width="24" height="24" viewBox="0 0 24 24" fill="none" xmlns="http://www.w3.org/2000/svg">
<g clip-path="url(#clip0)">
<path d="M19.6604 10.7306C19.6604 12.8982 20.61 14.9443 22.2662 16.3441C22.7021 16.7176 22.9464 17.2477 22.9464 17.8085C22.9464 18.8655 22.0865 19.7253 21.0296 19.7253H2.95684C1.89986 19.7253 1.04004 18.8655 1.04004 17.8085C1.04004 17.2477 1.28429 16.7176 1.71037 16.3528C3.37635 14.9443 4.32599 12.8982 4.32599 10.7306V7.67684C4.32599 3.82242 7.18805 0.631767 10.8979 0.0972533C11.808 -0.0337817 12.1983 -0.0310466 13.0885 0.0972533C16.7973 0.631767 19.6604 3.82242 19.6604 7.67684V10.7306Z" fill="#9E9E9E"/>
<path d="M11.6361 24.1066C13.6197 24.1066 15.2792 22.6926 15.6603 20.8207H7.61194C7.99311 22.6926 9.65251 24.1066 11.6361 24.1066Z" fill="#9E9E9E"/>
</g>
<defs>
<clipPath id="clip0">
<rect width="24" height="24" fill="white"/>
</clipPath>
</defs>
</svg>
